<?xml version="1.0" encoding="UTF-8"?>
<svg version="1.1" xmlns="http://www.w3.org/2000/svg" width="1000" height="1000">
<path d="M0 0 C0 4.74408209 -0.73870953 5.33670195 -3.75 8.8125 C-4.56984375 9.77929688 -5.3896875 10.74609375 -6.234375 11.7421875 C-6.90436523 12.52674316 -6.90436523 12.52674316 -7.58789062 13.32714844 C-10.1137293 16.31937642 -12.55549315 19.37874845 -15 22.4375 C-15.51046875 23.07494141 -16.0209375 23.71238281 -16.546875 24.36914062 C-20.44722249 29.25949979 -24.2074036 34.23920645 -27.94140625 39.2578125 C-33.31582655 46.41690748 -39.0537643 53.2845324 -44.75 60.1875 C-53.92037254 71.31275436 -62.96318721 82.486331 -71.5625 94.0625 C-72.15869141 94.86026855 -72.75488281 95.65803711 -73.36914062 96.47998047 C-79.12099257 103.99087276 -79.12099257 103.99087276 -81 113 C-74.11428503 112.64088108 -69.85482755 110.59803654 -64.125 106.875 C-63.33996094 106.38088623 -62.55492187 105.88677246 -61.74609375 105.37768555 C-56.627406 102.13144339 -51.61990983 98.7546901 -46.75 95.14453125 C-45 94 -45 94 -43 94 C-44.61269378 98.69312009 -47.15260972 102.52240347 -49.875 106.625 C-50.87337894 108.14779341 -51.87073804 109.67125583 -52.8671875 111.1953125 C-53.3837793 111.98454102 -53.90037109 112.77376953 -54.43261719 113.58691406 C-56.9954334 117.53253328 -59.49685928 121.51635805 -62 125.5 C-65.79288238 131.52686202 -69.62008216 137.52879876 -73.5 143.5 C-77.39405098 149.49598145 -81.24468759 155.51768108 -85.0625 161.5625 C-85.56579834 162.35664307 -86.06909668 163.15078613 -86.58764648 163.96899414 C-88.96706651 167.73309855 -91.31677831 171.50887354 -93.59375 175.3359375 C-98.89610133 184.19017777 -104.64532922 191.74811189 -112 199 C-112.60328125 199.60199219 -113.2065625 200.20398438 -113.828125 200.82421875 C-126.28042557 212.33957438 -142.28836667 217.35550166 -158.95703125 217.1484375 C-174.32631466 216.39871636 -188.62890535 209.28407213 -199.15625 198.171875 C-211.08408561 184.12128898 -213.32811777 167.45070733 -212.23046875 149.63525391 C-210.62454312 131.27258314 -200.98509585 115.54739599 -188 103 C-187.2059375 102.175 -186.411875 101.35 -185.59375 100.5 C-170.49894157 85.59626509 -149.90373067 76.56182588 -131.31982422 66.76074219 C-126.56403126 64.23840223 -121.84330987 61.65407964 -117.125 59.0625 C-111.00717758 55.70769411 -104.8711839 52.39003964 -98.70703125 49.12109375 C-98.07339157 48.78503616 -97.43975189 48.44897858 -96.78691101 48.10273743 C-96.14735977 47.76356796 -95.50780853 47.4243985 -94.84887695 47.07495117 C-80.56828523 39.50106842 -66.44694542 31.70081425 -52.49511719 23.53369141 C-8.67272904 -2.10958274 -8.67272904 -2.10958274 0 0 Z M-132 105 C-133.83329089 107.06668726 -135.62126915 109.15346116 -137.359375 111.30078125 C-139.94269901 113.97636683 -142.04527092 114.95660322 -145.75 115.125 C-146.4925 115.08375 -147.235 115.0425 -148 115 C-148.47758875 109.38833215 -147.33545439 105.92221885 -144.77734375 100.91796875 C-144.52082031 100.28503906 -144.26429688 99.65210938 -144 99 C-144.495 98.01 -144.495 98.01 -145 97 C-154.43620084 102.8760225 -162.76409268 109.5679259 -171 117 C-171.73605469 117.66257812 -172.47210938 118.32515625 -173.23046875 119.0078125 C-178.37562772 123.89173823 -183.6178121 129.88012513 -185 137 C-183.74509766 136.45859375 -183.74509766 136.45859375 -182.46484375 135.90625 C-170.50172543 131.1369005 -159.11717282 129.93277399 -146.78515625 134.6796875 C-138.21431193 138.7427245 -132.53690202 143.66231583 -128 152 C-127.401875 153.051875 -126.80375 154.10375 -126.1875 155.1875 C-122.99518608 165.43650786 -123.9144274 175.62384541 -126 186 C-118.46647939 180.74405539 -115.69944452 173.72382411 -113.25 165.0625 C-111.56298718 159.20635302 -109.17500192 153.95027599 -106.5 148.5 C-102.94697542 141.23632786 -99.55486377 133.99832464 -98 126 C-98.33 125.34 -98.66 124.68 -99 124 C-99.80824219 124.62648438 -100.61648437 125.25296875 -101.44921875 125.8984375 C-102.52841637 126.72425829 -103.60785635 127.54976242 -104.6875 128.375 C-105.21794922 128.7875 -105.74839844 129.2 -106.29492188 129.625 C-111.04966142 133.24210247 -114.79131303 135.30473692 -120.8125 135.125 C-121.60269531 135.10695313 -122.39289063 135.08890625 -123.20703125 135.0703125 C-123.79871094 135.04710937 -124.39039063 135.02390625 -125 135 C-125.7109375 133.34765625 -125.7109375 133.34765625 -126 131 C-124.6640625 128.43359375 -124.6640625 128.43359375 -122.625 125.4375 C-118.99740059 119.92709982 -116.15694883 114.25540067 -113.4375 108.25 C-109.2280552 99.06829489 -104.23764745 92.02477547 -97 85 C-96.67 84.34 -96.34 83.68 -96 83 C-107.70923356 83 -124.22400338 97.257593 -132 105 Z " fill="#0080F7" transform="translate(291,400)"/>
<path d="M0 0 C97.68 0 195.36 0 296 0 C296.33 39.27 296.66 78.54 297 119 C304.2933796 109.89506211 304.2933796 109.89506211 310.96875 100.3515625 C313.74648658 96.09417307 316.41635688 92.40337665 321 90 C329.86966613 88.21099009 339.06250775 89.06370958 348 90 C346.49658602 94.00606088 344.89372829 96.50714371 341.9375 99.625 C338.73339438 103.08420957 335.65157731 106.58276566 332.6875 110.25 C329.17773136 114.58812313 325.58323885 118.83907721 321.9375 123.0625 C317.1557042 128.60650116 312.51575161 134.23577588 308 140 C309.62918178 145.10879224 312.72091165 148.99709152 315.875 153.25 C317.06073045 154.8691808 318.24560731 156.488987 319.4296875 158.109375 C320.0287793 158.92728516 320.62787109 159.74519531 321.24511719 160.58789062 C323.87074154 164.19684564 326.43717551 167.84631023 329 171.5 C333.84039731 178.39146806 338.75708411 185.22495944 343.72460938 192.02539062 C351 202.03246734 351 202.03246734 351 205 C326.54412349 207.51225914 326.54412349 207.51225914 319.62597656 203.6875 C315.83206784 200.20218672 313.51172692 195.88047345 311.22265625 191.31494141 C309.13494665 187.36213342 306.46912003 183.81876416 303.875 180.1875 C301.55738435 176.80908917 299.2725765 173.40886475 297 170 C296.67 211.91 296.34 253.82 296 297 C198.32 297 100.64 297 0 297 C0 198.99 0 100.98 0 0 Z M2 2 C2 99.02 2 196.04 2 296 C98.69 296 195.38 296 295 296 C305.81303732 222.39565423 305.81303732 222.39565423 289 158 C288.278125 158.70125 287.55625 159.4025 286.8125 160.125 C286.40644531 160.51945313 286.00039063 160.91390625 285.58203125 161.3203125 C285.05996094 161.87460937 284.53789062 162.42890625 284 163 C283.15244141 163.85013672 282.30488281 164.70027344 281.43164062 165.57617188 C278.29164404 169.37875687 278.34879037 172.68486286 278.51171875 177.4609375 C278.51879349 178.25150543 278.52586823 179.04207336 278.53315735 179.8565979 C278.56098537 182.36372433 278.62369526 184.86855712 278.6875 187.375 C278.71259816 189.08199883 278.73540867 190.78903292 278.75585938 192.49609375 C278.80650985 196.66564119 278.90436414 200.83027633 279 205 C270.75 205 262.5 205 254 205 C254 167.05 254 129.1 254 90 C262.25 90 270.5 90 279 90 C279 106.5 279 123 279 140 C285.65783096 134.98541915 285.65783096 134.98541915 295 122 C295 82.4 295 42.8 295 2 C198.31 2 101.62 2 2 2 Z " fill="#FEFEFE" transform="translate(35,370)"/>
<path d="M0 0 C4.08072553 2.75995499 7.97788145 6.66657453 9.44140625 11.4375 C9.54324219 12.01371094 9.64507813 12.58992188 9.75 13.18359375 C10.41 13.18359375 11.07 13.18359375 11.75 13.18359375 C11.915 12.50296875 12.08 11.82234375 12.25 11.12109375 C14.97346331 5.78764477 19.8805818 1.75404723 25.3125 -0.75390625 C32.94642672 -3.16779612 42.4866705 -3.19747386 49.875 -0.06640625 C51.18858614 0.6445046 52.48434456 1.39048652 53.75 2.18359375 C55.11125 3.01890625 55.11125 3.01890625 56.5 3.87109375 C62.64369046 10.18544228 64.8799898 17.06893601 64.86352539 25.69628906 C64.86367142 26.34060883 64.86381744 26.98492859 64.8639679 27.64877319 C64.8632735 29.76978978 64.85550336 31.89071758 64.84765625 34.01171875 C64.84579039 35.48573763 64.84436728 36.95975713 64.84336853 38.43377686 C64.83955661 42.30698367 64.82973765 46.18015278 64.81866455 50.05334473 C64.80842193 54.00821421 64.8038648 57.96308981 64.79882812 61.91796875 C64.78811417 69.67319623 64.77052812 77.4283849 64.75 85.18359375 C56.83 85.18359375 48.91 85.18359375 40.75 85.18359375 C40.73541748 83.42249268 40.72083496 81.6613916 40.70581055 79.84692383 C40.65410322 74.01935911 40.58880207 68.19203137 40.51428509 62.36472034 C40.46961336 58.83260709 40.43035062 55.30060831 40.40356445 51.76831055 C40.3725092 47.70462053 40.31772166 43.64154833 40.26171875 39.578125 C40.25532883 38.31337845 40.2489389 37.0486319 40.24235535 35.74555969 C40.22256119 34.56471298 40.20276703 33.38386627 40.18237305 32.16723633 C40.17126999 31.13021072 40.16016693 30.09318512 40.14872742 29.0247345 C39.68898972 25.74886366 38.67470992 23.85102403 36.75 21.18359375 C32.72024333 18.45588525 28.44639875 18.63750087 23.75 19.18359375 C20.02789139 20.80190184 17.85069559 22.71744603 15.75 26.18359375 C14.73951174 29.3743222 14.59823712 32.35053891 14.54467773 35.68652344 C14.52473251 36.78736267 14.50478729 37.8882019 14.48423767 39.0223999 C14.46752518 40.20481262 14.45081268 41.38722534 14.43359375 42.60546875 C14.4024221 44.42815277 14.4024221 44.42815277 14.37062073 46.28765869 C14.30523172 50.16957948 14.24628949 54.05156795 14.1875 57.93359375 C14.14430468 60.56511117 14.10069006 63.19662174 14.05664062 65.828125 C13.94956113 72.27987854 13.84826341 78.73170016 13.75 85.18359375 C6.16 85.18359375 -1.43 85.18359375 -9.25 85.18359375 C-9.279729 82.59523682 -9.279729 82.59523682 -9.31005859 79.95458984 C-9.37796347 74.23883417 -9.4547488 68.52324345 -9.53752708 62.80768394 C-9.58736909 59.34399762 -9.63369952 55.88034002 -9.671875 52.41650391 C-9.71596918 48.42984142 -9.7755705 44.44348184 -9.8359375 40.45703125 C-9.84748871 39.21931976 -9.85903992 37.98160828 -9.87094116 36.70639038 C-9.89081085 35.54563995 -9.91068054 34.38488953 -9.93115234 33.18896484 C-9.94447601 32.17192474 -9.95779968 31.15488464 -9.9715271 30.10702515 C-10.28061464 26.86219878 -11.02073937 24.19881449 -12.25 21.18359375 C-16.47267407 18.28050532 -22.32155292 18.41081325 -27.25 19.18359375 C-30.61757141 20.85016283 -32.71862667 23.0991626 -34.38632202 26.50260925 C-35.33057363 29.43370625 -35.52719099 31.81619524 -35.56884766 34.8918457 C-35.58871735 36.01263016 -35.60858704 37.13341461 -35.62905884 38.28816223 C-35.64061005 39.48728745 -35.65216125 40.68641266 -35.6640625 41.921875 C-35.68342865 43.15777878 -35.7027948 44.39368256 -35.7227478 45.66703796 C-35.77232555 48.94011342 -35.81362829 52.21315475 -35.85089111 55.48638916 C-35.89102019 58.83152832 -35.94223452 62.17647748 -35.9921875 65.52148438 C-36.08816821 72.07542154 -36.17222625 78.62941626 -36.25 85.18359375 C-44.17 85.18359375 -52.09 85.18359375 -60.25 85.18359375 C-60.25 56.80359375 -60.25 28.42359375 -60.25 -0.81640625 C-52.66 -0.81640625 -45.07 -0.81640625 -37.25 -0.81640625 C-36.92 2.81359375 -36.59 6.44359375 -36.25 10.18359375 C-35.280625 8.94609375 -34.31125 7.70859375 -33.3125 6.43359375 C-25.10326215 -2.78953403 -11.41792702 -5.14298868 0 0 Z " fill="#FFFFFF" transform="translate(540.25,489.81640625)"/>
<path d="M0 0 C9.46260159 6.59729046 14.00471676 14.55402328 16.77734375 25.64453125 C16.77734375 31.91453125 16.77734375 38.18453125 16.77734375 44.64453125 C-2.36265625 44.64453125 -21.50265625 44.64453125 -41.22265625 44.64453125 C-38.02819556 55.89169581 -38.02819556 55.89169581 -30.22265625 62.64453125 C-24.55619568 64.53335144 -18.43695999 64.36921247 -12.78515625 62.51953125 C-9.98596445 60.78989027 -9.98596445 60.78989027 -8.796875 57.55078125 C-6.22265625 54.64453125 -6.22265625 54.64453125 -3.74633789 54.15673828 C-0.63602416 54.05310412 2.41885558 54.12258454 5.52734375 54.26953125 C7.14576172 54.31013672 7.14576172 54.31013672 8.796875 54.3515625 C11.4590544 54.42223983 14.11718611 54.52084724 16.77734375 54.64453125 C14.45827324 64.66249802 10.46521642 71.7120844 1.77734375 77.64453125 C-10.52105822 83.74749764 -25.77329359 85.09779587 -38.97265625 81.01953125 C-44.0415288 78.98484297 -48.22372672 76.3558973 -52.22265625 72.64453125 C-52.76535156 72.14308594 -53.30804687 71.64164063 -53.8671875 71.125 C-63.62996252 60.9667708 -64.61378785 47.67309011 -64.4375 34.390625 C-64.10098129 23.75370737 -60.36566808 12.88896774 -53.16015625 4.89453125 C-39.38510549 -7.90959082 -15.84946196 -9.66566485 0 0 Z M-37.59765625 19.45703125 C-39.67359131 23.10416437 -39.67359131 23.10416437 -40.22265625 29.64453125 C-29.00265625 29.64453125 -17.78265625 29.64453125 -6.22265625 29.64453125 C-6.66617915 22.54024523 -6.66617915 22.54024523 -10.03515625 17.76953125 C-10.53660156 17.21523438 -11.03804687 16.6609375 -11.5546875 16.08984375 C-15.90027173 12.32434922 -19.88434913 12.2129807 -25.46484375 12.33203125 C-30.94159143 12.95262589 -34.02446881 15.22562507 -37.59765625 19.45703125 Z " fill="#FFFFFF" transform="translate(679.22265625,493.35546875)"/>
<path d="M0 0 C8.56305305 6.98703102 13.71393956 15.25186063 15.6875 26.1875 C17.0340295 40.72322691 16.2863991 55.04962498 7.375 67.19140625 C0.70977676 75.07550133 -7.91529736 80.47959629 -18.41210938 81.36450195 C-32.29223471 81.74351756 -44.26248618 81.55523332 -55.34765625 72.09375 C-64.30702722 63.40155709 -68.33963661 52.34191095 -68.55419922 39.95703125 C-68.60321051 26.18774262 -66.70084332 14.68036333 -57.37890625 3.96484375 C-42.66741275 -10.47671409 -16.71684684 -11.61151559 0 0 Z M-39.890625 18.5703125 C-44.80838353 28.03841082 -45.94804758 38.19648397 -43.0625 48.5625 C-41.09372786 54.223854 -38.92319516 58.52387387 -33.625 61.625 C-29.01118341 63.6784491 -25.12504892 63.53823399 -20.3125 62.1875 C-14.02343337 59.40579745 -11.69493399 54.347658 -9.3125 48.1875 C-6.65519255 37.65854595 -8.11040709 27.36296489 -13.0625 17.8125 C-16.93571212 13.29375253 -20.35206708 11.46756185 -26.25 10.625 C-32.14620949 11.00208316 -36.63598768 13.65613239 -39.890625 18.5703125 Z " fill="#FFFFFF" transform="translate(452.3125,494.8125)"/>
<path d="M0 0 C7.92 0 15.84 0 24 0 C24 6.27 24 12.54 24 19 C29.28 19 34.56 19 40 19 C40 25.27 40 31.54 40 38 C34.72 38 29.44 38 24 38 C24.04412459 44.05115473 24.1139288 50.10126324 24.20751953 56.15185547 C24.23574049 58.21003898 24.25694941 60.2683311 24.27099609 62.32666016 C24.2924099 65.28604785 24.33905221 68.2441282 24.390625 71.203125 C24.39185364 72.12305237 24.39308228 73.04297974 24.39434814 73.99078369 C24.47520951 79.13710292 24.47520951 79.13710292 26.87695312 83.57421875 C30.68150839 86.12925587 34.50049937 85.76318418 39 86 C39 91.94 39 97.88 39 104 C28.80007111 106.54998222 17.10283062 105.88906159 7.6875 101 C2.97148682 97.68811561 1.49652874 93.43271714 0 88 C-0.48472893 84.01206558 -0.47011798 80.09839436 -0.390625 76.0859375 C-0.38496521 74.99028473 -0.37930542 73.89463196 -0.37347412 72.76577759 C-0.35126804 69.30172104 -0.30110039 65.83873846 -0.25 62.375 C-0.22991467 60.0117338 -0.21166748 57.64845121 -0.1953125 55.28515625 C-0.15145481 49.52303021 -0.0825367 43.76169653 0 38 C-3.96 38 -7.92 38 -12 38 C-12 31.73 -12 25.46 -12 19 C-8.04 19 -4.08 19 0 19 C0 12.73 0 6.46 0 0 Z " fill="#FFFFFF" transform="translate(714,470)"/>
<path d="M0 0 C97.68 0 195.36 0 296 0 C296 39.93 296 79.86 296 121 C295.67 121 295.34 121 295 121 C295 81.73 295 42.46 295 2 C198.31 2 101.62 2 2 2 C2 99.02 2 196.04 2 296 C98.69 296 195.38 296 295 296 C295 253.43 295 210.86 295 167 C295.33 167 295.66 167 296 167 C296 209.9 296 252.8 296 297 C198.32 297 100.64 297 0 297 C0 198.99 0 100.98 0 0 Z " fill="#131518" transform="translate(35,370)"/>
<path d="M0 0 C-1.1858237 3.37503669 -2.27573689 5.64722731 -5 8 C-5.33 7.01 -5.66 6.02 -6 5 C-6.66 4.67 -7.32 4.34 -8 4 C-2.25 0 -2.25 0 0 0 Z " fill="#0057A1" transform="translate(248,494)"/>
<path d="M0 0 C0.99 0.33 1.98 0.66 3 1 C2.34 1 1.68 1 1 1 C0.773125 1.556875 0.54625 2.11375 0.3125 2.6875 C-1.35896766 5.63246684 -3.55276352 7.68156544 -6 10 C-6.66 9.67 -7.32 9.34 -8 9 C-6.8553125 7.88625 -6.8553125 7.88625 -5.6875 6.75 C-3.5606298 4.5736677 -1.7440044 2.47832204 0 0 Z " fill="#0069C4" transform="translate(196,481)"/>
</svg>
