<?xml version="1.0" encoding="UTF-8"?>
<svg version="1.1" xmlns="http://www.w3.org/2000/svg" width="1024" height="1024">
<path d="M0 0 C3.1875 2.0625 3.1875 2.0625 5 5 C4.86763307 10.87291174 2.87086496 14.07913329 -1 18.25 C-2.00875892 19.38587895 -3.01655761 20.52261133 -4.0234375 21.66015625 C-4.52713867 22.22105957 -5.03083984 22.78196289 -5.54980469 23.35986328 C-7.65381704 25.73945167 -9.63672716 28.21094107 -11.625 30.6875 C-14.49426557 34.21536923 -17.43905693 37.63719922 -20.5 41 C-27.6329567 48.84872052 -34.16908235 57.17529181 -40.70043945 65.52416992 C-44.12257996 69.89627908 -47.58510725 74.23426175 -51.0625 78.5625 C-56.46899714 85.30407267 -61.76055619 92.12772756 -67 99 C-68.25256322 100.6393542 -69.50517077 102.27867453 -70.7578125 103.91796875 C-79.68937085 115.61551204 -88.56547193 127.35293487 -97.3515625 139.16015625 C-105.94172712 150.67947595 -114.86450926 161.90925135 -124 173 C-125.45844341 174.79157706 -126.91677517 176.58324502 -128.375 178.375 C-131.62419731 182.34936418 -134.92274691 186.27848428 -138.25 190.1875 C-142.97422904 195.73942865 -147.57747555 201.38276301 -152.15869141 207.05297852 C-155.59179836 211.2931864 -159.07981681 215.47823697 -162.625 219.625 C-167.2933367 225.09566761 -171.75166029 230.71079299 -176.171875 236.3828125 C-179.1457267 240.19710055 -182.16277622 243.97599343 -185.1875 247.75 C-185.69587402 248.38462158 -186.20424805 249.01924316 -186.72802734 249.6730957 C-188.86674967 252.34179468 -191.00726474 255.00904791 -193.1484375 257.67578125 C-200.9505446 267.40453112 -208.65054218 277.21154636 -216.234375 287.11132812 C-218.79877483 290.45391847 -221.39101235 293.77264183 -224.00366211 297.07763672 C-229.95948727 304.61228041 -235.74135736 312.26649537 -241.47949219 319.96777344 C-242.99081553 321.98772454 -244.51303561 323.99895266 -246.0390625 326.0078125 C-252.97560582 335.15331788 -259.6371574 344.44573949 -266 354 C-266.38704102 354.57347168 -266.77408203 355.14694336 -267.17285156 355.73779297 C-273.65747756 365.40799858 -279.72536067 376.01021478 -279 388 C-277.78081028 391.40089765 -276.91687219 393.36096787 -273.9375 395.4375 C-255.03553499 399.05702522 -232.08021957 383.16661696 -217.29760742 373.1730957 C-215.62637493 371.99384294 -213.95894748 370.80917392 -212.29589844 369.6184082 C-208.97656914 367.27857049 -205.53058558 365.17232523 -202.0625 363.0625 C-196.39451319 359.56888166 -190.95893613 355.88964583 -185.61328125 351.9140625 C-181.44766335 348.86301202 -177.13292694 346.04328509 -172.82226562 343.20263672 C-169.10428165 340.74888684 -165.396231 338.28020204 -161.6875 335.8125 C-160.93460693 335.31331055 -160.18171387 334.81412109 -159.40600586 334.29980469 C-154.87241546 331.28443291 -150.41329903 328.18900207 -146 325 C-145.67 325.66 -145.34 326.32 -145 327 C-145.99707031 328.97680664 -145.99707031 328.97680664 -147.578125 331.41015625 C-148.1563501 332.30871338 -148.7345752 333.20727051 -149.33032227 334.13305664 C-149.96381592 335.09977295 -150.59730957 336.06648926 -151.25 337.0625 C-151.89316162 338.05822021 -152.53632324 339.05394043 -153.19897461 340.07983398 C-155.12487708 343.05835618 -157.06101259 346.02998399 -159 349 C-160.85614381 351.85288538 -162.70987013 354.70733172 -164.5625 357.5625 C-165.21980103 358.57352783 -165.21980103 358.57352783 -165.89038086 359.60498047 C-170.00708216 365.95988104 -173.97980785 372.40104574 -177.95117188 378.84741211 C-183.08253326 387.16472034 -188.32729996 395.40731705 -193.5859375 403.64453125 C-196.80559755 408.68854412 -199.99876876 413.74890086 -203.1875 418.8125 C-209.96244394 429.55714641 -216.80833639 440.25685603 -223.875 450.8125 C-232.32345618 463.43345903 -240.53455361 476.20886243 -248.62011719 489.06469727 C-251.87509099 494.2352135 -255.17098694 499.37687943 -258.5 504.5 C-264.41726423 513.61406888 -270.22254635 522.79679629 -276 532 C-276.59893066 532.95390625 -277.19786133 533.9078125 -277.81494141 534.890625 C-284.61050637 545.72144027 -291.37269191 556.56985579 -298.01464844 567.49560547 C-301.22408101 572.76282278 -304.50507185 577.9813631 -307.8125 583.1875 C-312.98759728 591.33449426 -318.0259286 599.56004404 -323.0168457 607.82104492 C-336.09410998 629.43172933 -350.0476413 650.35867805 -367.21484375 668.96875 C-369.04445938 670.8768145 -369.04445938 670.8768145 -370 673 C-370.66 673 -371.32 673 -372 673 C-372.26393555 673.59224365 -372.52787109 674.1844873 -372.79980469 674.79467773 C-374.04869039 677.08946711 -375.3082462 678.50074963 -377.203125 680.28515625 C-377.84636719 680.89262695 -378.48960937 681.50009766 -379.15234375 682.12597656 C-379.84457031 682.7650293 -380.53679687 683.40408203 -381.25 684.0625 C-382.32701172 685.06168457 -382.32701172 685.06168457 -383.42578125 686.08105469 C-399.28844047 700.63581388 -416.91559768 713.03943741 -436 723 C-436.69867188 723.36834961 -437.39734375 723.73669922 -438.1171875 724.11621094 C-467.45106295 739.37882754 -500.03187041 747.4819229 -533.0625 747.3125 C-534.12493423 747.31076279 -534.12493423 747.31076279 -535.20883179 747.30899048 C-551.26464026 747.25748702 -567.31084408 746.07703959 -582.79296875 741.55078125 C-585.26770911 740.83857897 -585.26770911 740.83857897 -589 741 C-589 740.34 -589 739.68 -589 739 C-590.155 738.79375 -591.31 738.5875 -592.5 738.375 C-632.57515562 729.34397901 -670.94516975 699.12558527 -693.20800781 665.22290039 C-711.89810758 635.63771248 -722.64356872 602.77779183 -726 568 C-726.12181641 566.7634668 -726.12181641 566.7634668 -726.24609375 565.50195312 C-731.89786779 503.18370774 -709.75316944 440.6687591 -673 391 C-672.55575684 390.39591309 -672.11151367 389.79182617 -671.65380859 389.16943359 C-659.9274852 373.35058364 -645.96197162 358.78522993 -631 346 C-630.06414062 345.18660156 -629.12828125 344.37320312 -628.1640625 343.53515625 C-615.12241183 332.26263384 -601.25628724 322.38307918 -586.9375 312.8125 C-586.31118683 312.39283966 -585.68487366 311.97317932 -585.0395813 311.540802 C-575.8595611 305.40151614 -566.51745593 299.60081307 -557 294 C-556.145271 293.49637939 -555.29054199 292.99275879 -554.40991211 292.47387695 C-552.27770678 291.22472271 -550.14058474 289.98473216 -548 288.75 C-547.22003662 288.29947266 -546.44007324 287.84894531 -545.63647461 287.38476562 C-529.69656871 278.19836678 -513.65533527 269.1948725 -497.51123047 260.37255859 C-494.95556217 258.9757117 -492.40156281 257.57584617 -489.84765625 256.17578125 C-478.99578654 250.23449505 -468.1051016 244.36777239 -457.19470215 238.53485107 C-448.46954339 233.8695078 -439.76660051 229.16560409 -431.0859375 224.41796875 C-423.38620868 220.20682674 -415.67005407 216.02649626 -407.95117188 211.85058594 C-402.26547888 208.7731267 -396.58626636 205.68427765 -390.9140625 202.58203125 C-381.03865349 197.18096445 -371.12948665 191.84515851 -361.20266724 186.53933716 C-353.17790455 182.24947809 -345.17095289 177.92882277 -337.1875 173.5625 C-315.46959588 161.69228002 -315.46959588 161.69228002 -304.4375 156.25 C-294.12366018 151.14557909 -284.06900034 145.56773444 -274 140 C-272.9378125 139.4126709 -271.875625 138.8253418 -270.78125 138.22021484 C-263.9725456 134.45154075 -257.17119627 130.66979978 -250.37402344 126.88037109 C-247.1074035 125.05985686 -243.83891582 123.2427313 -240.5703125 121.42578125 C-229.31226889 115.15625328 -218.1312605 108.77381103 -207.01879883 102.24975586 C-198.86418233 97.47373752 -190.62849316 92.85374216 -182.37084961 88.25878906 C-175.04994854 84.17477987 -167.79294708 79.99187766 -160.5625 75.75 C-151.54244072 70.46177771 -142.47372559 65.28535896 -133.30322266 60.26269531 C-130.84903578 58.91723691 -128.3991504 57.56412708 -125.94921875 56.2109375 C-111.43250961 48.21566704 -96.76338789 40.52861308 -82 33 C-81.21639099 32.59982666 -80.43278198 32.19965332 -79.62542725 31.78735352 C-13.60730645 -1.90941236 -13.60730645 -1.90941236 0 0 Z M-328.3125 283.75 C-329.55580078 284.21937988 -329.55580078 284.21937988 -330.82421875 284.69824219 C-348.36589489 291.49759366 -364.96190635 300.21170788 -381 310 C-381.95052246 310.5779834 -382.90104492 311.1559668 -383.88037109 311.75146484 C-402.28108353 322.9823771 -419.8311595 334.78592774 -436.36425781 348.63427734 C-437.71898861 349.76537646 -439.08815515 350.87916027 -440.4609375 351.98828125 C-445.21589928 355.92569031 -448.98003472 360.44293439 -452.8125 365.2734375 C-455.35403137 368.44127481 -458.04132309 371.44869933 -460.78515625 374.44140625 C-462.20492046 375.93355065 -462.20492046 375.93355065 -462 378 C-462.99 378.33 -463.98 378.66 -465 379 C-466.20147673 380.45169821 -467.40028706 381.90581543 -468.57666016 383.37792969 C-470.94676982 386.07896033 -473.75467549 388.07367389 -476.6875 390.125 C-477.30326904 390.55731934 -477.91903809 390.98963867 -478.5534668 391.43505859 C-486.26839517 396.71353528 -493.4690298 400.13110736 -503 399 C-504.33936761 398.69180641 -505.67509261 398.36538926 -507 398 C-512.15741017 379.28696447 -501.38566326 360.23815213 -492.41699219 344.16259766 C-489.41216235 339.02060811 -486.25518448 333.98666558 -483 329 C-483.66 328.67 -484.32 328.34 -485 328 C-494.07109419 331.41518197 -502.11320833 337.18443061 -510.03808594 342.65136719 C-511.98808597 343.99181021 -513.94928364 345.31414926 -515.9140625 346.6328125 C-525.90959653 353.37275016 -535.5255451 360.54778681 -545 368 C-546.02939697 368.80872559 -546.02939697 368.80872559 -547.07958984 369.63378906 C-555.63496357 376.3879246 -563.81583123 383.42234067 -571.71875 390.9296875 C-573.97737665 393.07107611 -576.29172233 395.12097091 -578.65625 397.14453125 C-583.80054501 401.61804571 -588.61250178 406.42644084 -593.43017578 411.24487305 C-595.0196909 412.83216334 -596.61709657 414.41123553 -598.21484375 415.99023438 C-599.22704926 416.99951207 -600.23878611 418.00926004 -601.25 419.01953125 C-602.16265625 419.92807861 -603.0753125 420.83662598 -604.015625 421.77270508 C-606.22173894 423.75170843 -606.22173894 423.75170843 -606 426 C-606.66 426 -607.32 426 -608 426 C-611.22990412 429.46890336 -614.07900091 433.26952593 -617 437 C-618.1446875 438.44052734 -618.1446875 438.44052734 -619.3125 439.91015625 C-628.01436557 451.13495854 -636.49676802 463.56897296 -638 478 C-634.33422808 476.64910731 -631.23283287 474.96188238 -627.9375 472.875 C-596.35774225 454.34409081 -558.04941394 450.20094345 -522.83496094 459.22167969 C-503.07559793 464.64648586 -484.62224894 473.68582615 -469 487 C-467.66388672 488.12728516 -467.66388672 488.12728516 -466.30078125 489.27734375 C-446.8896325 506.1914994 -432.6314954 528.74359637 -427 554 C-426.55527344 555.80984375 -426.55527344 555.80984375 -426.1015625 557.65625 C-419.50318435 586.98073861 -424.54559739 618.01400372 -436.3359375 645.28515625 C-437.1203711 647.00435211 -437.1203711 647.00435211 -437 649 C-418.83922445 642.34735479 -404.87582855 622.21021213 -396.9765625 605.5078125 C-391.423167 593.20131436 -387.99914317 580.32422891 -385.0625 567.1875 C-382.89760756 557.67446304 -380.0210079 549.63403592 -375.21728516 541.17333984 C-372.7303434 536.73315623 -370.41291309 532.20095834 -368.0625 527.6875 C-367.54623047 526.69903076 -367.02996094 525.71056152 -366.49804688 524.69213867 C-340.84816301 476.51756633 -340.84816301 476.51756633 -331 424 C-336.05855007 426.70129122 -340.13814309 429.66270433 -344.375 433.5 C-363.16721108 450.01219853 -388.1059309 468.42219253 -414.125 468.3125 C-415.28322266 468.33666992 -415.28322266 468.33666992 -416.46484375 468.36132812 C-421.37147009 468.36550753 -424.75331286 467.71867354 -429 465 C-430.53476537 461.93046926 -430.61655648 459.30806268 -430 456 C-427.16610257 449.38082529 -423.06475461 443.57711835 -418.8984375 437.74609375 C-406.01376514 419.10838867 -396.4440392 398.42795381 -387.58398438 377.65771484 C-376.42448313 351.5092669 -362.5034896 327.33312601 -342.62109375 306.76171875 C-339.94528859 304.0120016 -339.94528859 304.0120016 -337.4921875 300.921875 C-335.06593152 298.07729902 -332.61715367 295.87315304 -329.6875 293.5625 C-325.01262399 289.825133 -320.46797129 285.98148731 -316 282 C-320.59826907 280.52804545 -323.96680185 282.08641243 -328.3125 283.75 Z " fill="#0083FE" transform="translate(879,102)"/>
<path d="M0 0 C337.92 0 675.84 0 1024 0 C1024 337.92 1024 675.84 1024 1024 C686.08 1024 348.16 1024 0 1024 C0 686.08 0 348.16 0 0 Z M1 1 C1 338.26 1 675.52 1 1023 C338.26 1023 675.52 1023 1023 1023 C1023 685.74 1023 348.48 1023 1 C685.74 1 348.48 1 1 1 Z " fill="#515966" transform="translate(0,0)"/>
<path d="M0 0 C2 1 2 1 2 1 Z " fill="#0582F7" transform="translate(277,839)"/>
<path d="M0 0 C2 1 2 1 2 1 Z " fill="#0282F8" transform="translate(245,448)"/>
<path d="M0 0 C2 1 2 1 2 1 Z " fill="#0183F8" transform="translate(265,432)"/>
<path d="M0 0 C2 1 2 1 2 1 Z " fill="#0385FA" transform="translate(353,376)"/>
<path d="" fill="#0C7AE3" transform="translate(0,0)"/>
<path d="" fill="#4C4C4C" transform="translate(0,0)"/>
<path d="" fill="#494749" transform="translate(0,0)"/>
<path d="" fill="#0883F7" transform="translate(0,0)"/>
<path d="" fill="#0985F6" transform="translate(0,0)"/>
<path d="" fill="#0582F7" transform="translate(0,0)"/>
<path d="" fill="#0682F5" transform="translate(0,0)"/>
<path d="" fill="#0481F8" transform="translate(0,0)"/>
<path d="" fill="#0583F7" transform="translate(0,0)"/>
<path d="" fill="#0682F7" transform="translate(0,0)"/>
<path d="" fill="#037FF3" transform="translate(0,0)"/>
<path d="" fill="#0880F4" transform="translate(0,0)"/>
<path d="" fill="#0186FF" transform="translate(0,0)"/>
<path d="" fill="#0189FF" transform="translate(0,0)"/>
<path d="" fill="#057FF3" transform="translate(0,0)"/>
<path d="" fill="#0482F7" transform="translate(0,0)"/>
<path d="" fill="#0186FF" transform="translate(0,0)"/>
<path d="" fill="#0383FE" transform="translate(0,0)"/>
<path d="" fill="#0784F5" transform="translate(0,0)"/>
<path d="" fill="#0581F7" transform="translate(0,0)"/>
<path d="" fill="#0682F5" transform="translate(0,0)"/>
<path d="" fill="#0482F6" transform="translate(0,0)"/>
<path d="" fill="#0383F8" transform="translate(0,0)"/>
<path d="" fill="#0488FF" transform="translate(0,0)"/>
<path d="" fill="#0188FC" transform="translate(0,0)"/>
<path d="" fill="#0483F7" transform="translate(0,0)"/>
<path d="" fill="#0388FF" transform="translate(0,0)"/>
<path d="" fill="#0384FF" transform="translate(0,0)"/>
<path d="" fill="#0285FD" transform="translate(0,0)"/>
<path d="" fill="#0187FD" transform="translate(0,0)"/>
<path d="" fill="#0784F5" transform="translate(0,0)"/>
<path d="" fill="#0583F6" transform="translate(0,0)"/>
<path d="" fill="#0182FA" transform="translate(0,0)"/>
<path d="" fill="#0386FE" transform="translate(0,0)"/>
<path d="" fill="#0385FD" transform="translate(0,0)"/>
<path d="" fill="#0285FC" transform="translate(0,0)"/>
<path d="" fill="#0286FE" transform="translate(0,0)"/>
<path d="" fill="#0086FF" transform="translate(0,0)"/>
<path d="" fill="#018AFF" transform="translate(0,0)"/>
<path d="" fill="#0185FD" transform="translate(0,0)"/>
<path d="" fill="#028AFF" transform="translate(0,0)"/>
<path d="" fill="#0186FE" transform="translate(0,0)"/>
<path d="" fill="#0283F6" transform="translate(0,0)"/>
<path d="" fill="#0483F8" transform="translate(0,0)"/>
<path d="" fill="#0084FA" transform="translate(0,0)"/>
<path d="" fill="#0283F9" transform="translate(0,0)"/>
<path d="" fill="#0183FB" transform="translate(0,0)"/>
<path d="" fill="#0283FA" transform="translate(0,0)"/>
<path d="" fill="#0283FA" transform="translate(0,0)"/>
<path d="" fill="#0483F7" transform="translate(0,0)"/>
<path d="" fill="#52535A" transform="translate(0,0)"/>
</svg>
